<mxfile host="65bd71144e">
    <diagram id="SogAj66ykhWvAEh30I8w" name="ページ1">
        <mxGraphModel dx="696" dy="759" grid="1" gridSize="10" guides="1" tooltips="1" connect="1" arrows="1" fold="1" page="1" pageScale="1" pageWidth="583" pageHeight="413" math="0" shadow="0">
            <root>
                <mxCell id="0"/>
                <mxCell id="1" parent="0"/>
                <mxCell id="2" value="&lt;font color=&quot;#ff0000&quot; style=&quot;font-size: 18px;&quot;&gt;変換仕様&lt;/font&gt;" style="text;html=1;strokeColor=none;fillColor=none;align=center;verticalAlign=middle;whiteSpace=wrap;rounded=0;" parent="1" vertex="1">
                    <mxGeometry x="220" y="10" width="80" height="20" as="geometry"/>
                </mxCell>
                <mxCell id="5" value="&lt;font style=&quot;font-size: 18px;&quot;&gt;変換規則&lt;/font&gt;" style="text;html=1;strokeColor=#66B2FF;fillColor=none;align=center;verticalAlign=middle;whiteSpace=wrap;rounded=0;" parent="1" vertex="1">
                    <mxGeometry x="15" y="110" width="90" height="30" as="geometry"/>
                </mxCell>
                <mxCell id="11" value="&lt;font style=&quot;font-size: 18px;&quot;&gt;ignoreファイル&lt;/font&gt;" style="text;html=1;strokeColor=#00CC00;fillColor=none;align=center;verticalAlign=middle;whiteSpace=wrap;rounded=0;" parent="1" vertex="1">
                    <mxGeometry x="250" y="110" width="140" height="30" as="geometry"/>
                </mxCell>
                <mxCell id="12" value="&lt;font style=&quot;font-size: 18px;&quot;&gt;反映ルール&lt;/font&gt;" style="text;html=1;strokeColor=#66B2FF;fillColor=none;align=center;verticalAlign=middle;whiteSpace=wrap;rounded=0;" parent="1" vertex="1">
                    <mxGeometry x="125" y="110" width="105" height="30" as="geometry"/>
                </mxCell>
                <mxCell id="13" value="&lt;font style=&quot;font-size: 18px;&quot;&gt;反映モード&lt;/font&gt;" style="text;html=1;strokeColor=#00CC00;fillColor=none;align=center;verticalAlign=middle;whiteSpace=wrap;rounded=0;" parent="1" vertex="1">
                    <mxGeometry x="410" y="110" width="105" height="30" as="geometry"/>
                </mxCell>
                <mxCell id="41" value="&lt;font style=&quot;font-size: 18px;&quot; color=&quot;#009900&quot;&gt;設定情報&lt;/font&gt;" style="text;html=1;strokeColor=none;fillColor=none;align=center;verticalAlign=middle;whiteSpace=wrap;rounded=0;dashed=1;dashPattern=8 8;fontSize=16;" parent="1" vertex="1">
                    <mxGeometry x="352.5" y="55" width="75" height="20" as="geometry"/>
                </mxCell>
                <mxCell id="71" value="" style="shape=curlyBracket;whiteSpace=wrap;html=1;rounded=1;labelPosition=left;verticalLabelPosition=middle;align=right;verticalAlign=middle;direction=south;" parent="1" vertex="1">
                    <mxGeometry x="52.5" y="30" width="415" height="20" as="geometry"/>
                </mxCell>
                <mxCell id="72" value="" style="shape=curlyBracket;whiteSpace=wrap;html=1;rounded=1;labelPosition=left;verticalLabelPosition=middle;align=right;verticalAlign=middle;direction=south;" parent="1" vertex="1">
                    <mxGeometry x="318.75" y="75" width="142.5" height="20" as="geometry"/>
                </mxCell>
                <mxCell id="103" value="&lt;font style=&quot;font-size: 18px;&quot;&gt;・変換規則　　　　コマンドと Dockerfile の命令を対応づける&lt;br&gt;・反映ルール　　　構文情報からコマンドの反映の要否を決定&lt;br&gt;・ignoreファイル 　反映しないコマンドとその条件を記述&lt;br&gt;・反映モード　　　反映ルール・ignoreファイルの使い方を変更&lt;/font&gt;" style="text;html=1;strokeColor=none;fillColor=none;align=left;verticalAlign=middle;whiteSpace=wrap;rounded=0;fontSize=16;" parent="1" vertex="1">
                    <mxGeometry y="200" width="530" height="74" as="geometry"/>
                </mxCell>
                <mxCell id="106" value="" style="shape=partialRectangle;whiteSpace=wrap;html=1;left=0;right=0;fillColor=none;fontSize=16;fontColor=#3399FF;strokeColor=#B3B3B3;" parent="1" vertex="1">
                    <mxGeometry y="180" width="530" height="113" as="geometry"/>
                </mxCell>
            </root>
        </mxGraphModel>
    </diagram>
</mxfile>